<svg xmlns="http://www.w3.org/2000/svg" xmlns:xlink="http://www.w3.org/1999/xlink" width="50" height="50" viewBox="0 0 50 50">
  <defs>
    <clipPath id="clip-Chat">
      <rect width="50" height="50"/>
    </clipPath>
  </defs>
  <g id="Chat" clip-path="url(#clip-Chat)">
    <rect width="50" height="50" fill="rgba(255,255,255,0)"/>
    <g id="Path_231" data-name="Path 231" transform="translate(7 6.486)" fill="none">
      <path d="M12.587,36.032l.023-8.1A14,14,0,0,1,14,0h8a14,14,0,0,1,7.393,25.891.973.973,0,0,1-.227.194l-15.107,10.8a.955.955,0,0,1-.506.147A.966.966,0,0,1,12.587,36.032Z" stroke="none"/>
      <path d="M 15.59757518768311 32.09486389160156 L 27.28215599060059 23.74386405944824 L 27.41506004333496 23.5887508392334 L 27.8066291809082 23.34479141235352 C 29.36591911315918 22.37332153320312 30.66901969909668 21.01608085632324 31.57505989074707 19.41978073120117 C 32.50725936889648 17.77737998962402 33 15.90339088439941 33 14.00040054321289 C 33 11.06180095672607 31.8558406829834 8.299281120300293 29.77828025817871 6.221720695495605 C 27.70071983337402 4.144160747528076 24.93819999694824 3.000000953674316 21.99959945678711 3.000000953674316 L 14.00039958953857 3.000000953674316 C 11.06180000305176 3.000000953674316 8.299280166625977 4.144160747528076 6.221720218658447 6.221720695495605 C 4.14415979385376 8.299281120300293 3 11.06180095672607 3 14.00040054321289 C 3 16.74785041809082 4.018219947814941 19.37808990478516 5.867080211639404 21.4066104888916 C 7.704629898071289 23.42270088195801 10.20363998413086 24.67971038818359 12.90377998352051 24.94608116149902 L 15.61690998077393 25.21373176574707 L 15.60925006866455 27.94002151489258 L 15.59757518768311 32.09486389160156 M 13.55265045166016 37.02856063842773 C 13.03952980041504 37.02862167358398 12.56824016571045 36.60988998413086 12.58650016784668 36.03150177001953 L 12.60925960540771 27.93159103393555 C 5.529860019683838 27.23320007324219 0 21.26274108886719 0 14.00040054321289 C 0 6.267601013183594 6.267600059509277 8.367919690499548e-07 14.00039958953857 8.367919690499548e-07 L 21.99959945678711 8.367919690499548e-07 C 29.73240089416504 8.367919690499548e-07 36 6.267601013183594 36 14.00040054321289 C 36 19.01830101013184 33.35992050170898 23.41958045959473 29.39299964904785 25.89105033874512 C 29.3303394317627 25.96417999267578 29.25481033325195 26.02976989746094 29.16629981994629 26.08470153808594 L 14.05889987945557 36.88199996948242 C 13.89640045166016 36.98281097412109 13.72220039367676 37.02854919433594 13.55265045166016 37.02856063842773 Z" stroke="none" fill="#fff"/>
    </g>
  </g>
</svg>
