<svg xmlns="http://www.w3.org/2000/svg" xmlns:xlink="http://www.w3.org/1999/xlink" width="50" height="50" viewBox="0 0 50 50">
  <defs>
    <clipPath id="clip-People">
      <rect width="50" height="50"/>
    </clipPath>
  </defs>
  <g id="People" clip-path="url(#clip-People)">
    <rect width="50" height="50" fill="rgba(255,255,255,0)"/>
    <g id="Group_502" data-name="Group 502" transform="translate(-7383 -7035.463)">
      <g id="Path_225" data-name="Path 225" transform="translate(7392 7044)" fill="none">
        <path d="M7.5,0C11.642,0,15,3.806,15,8.5s.144,8.544-7.5,8.5S0,13.194,0,8.5,3.358,0,7.5,0Z" stroke="none"/>
        <path d="M 7.5 3.000002861022949 C 6.36968994140625 3.000002861022949 5.28516960144043 3.523642539978027 4.446209907531738 4.474462509155273 C 3.513609886169434 5.531413078308105 3 6.961042404174805 3 8.500002861022949 L 2.999899864196777 8.75664234161377 C 2.998950004577637 10.46210289001465 2.997969627380371 12.22562217712402 3.471209526062012 12.97493267059326 C 4.023770332336426 13.84981250762939 6.243359565734863 13.9927225112915 7.517280101776123 14.0000524520874 C 7.55486011505127 14.00027275085449 7.591800212860107 14.00037288665771 7.62893009185791 14.00037288665771 C 9.341469764709473 14.00037288665771 10.28355979919434 13.7658224105835 10.77231025695801 13.56906318664551 C 11.25331020355225 13.37542247772217 11.42444038391113 13.1771125793457 11.52840042114258 13.0086727142334 C 12.00201988220215 12.2412223815918 12.00103950500488 10.4693431854248 12.00008964538574 8.755792617797852 L 12 8.500002861022949 C 12 6.961042404174805 11.48639011383057 5.531413078308105 10.55379009246826 4.474462509155273 C 9.71483039855957 3.523642539978027 8.63031005859375 3.000002861022949 7.5 3.000002861022949 M 7.5 1.9073486328125e-06 C 11.64213943481445 1.9073486328125e-06 15 3.805583000183105 15 8.500002861022949 C 15 13.16777610778809 15.14144992828369 17.00037574768066 7.628934383392334 17.00037574768066 C 7.586047649383545 17.00037574768066 7.543386936187744 17.00025177001953 7.5 17.00000190734863 C -0.1435604095458984 16.95605278015137 0 13.19442272186279 0 8.500002861022949 C 0 3.805583000183105 3.35785961151123 1.9073486328125e-06 7.5 1.9073486328125e-06 Z" stroke="none" fill="#fff"/>
      </g>
      <g id="Path_226" data-name="Path 226" transform="translate(7409 7044)" fill="none">
        <path d="M7.5,0C11.642,0,15,3.806,15,8.5s.144,8.544-7.5,8.5S0,13.194,0,8.5,3.358,0,7.5,0Z" stroke="none"/>
        <path d="M 7.5 3.000002861022949 C 6.36968994140625 3.000002861022949 5.28516960144043 3.523642539978027 4.446209907531738 4.474462509155273 C 3.513609886169434 5.531413078308105 3 6.961042404174805 3 8.500002861022949 L 2.999899864196777 8.75664234161377 C 2.998950004577637 10.46210289001465 2.997969627380371 12.22562217712402 3.471209526062012 12.97493267059326 C 4.023770332336426 13.84981250762939 6.243359565734863 13.9927225112915 7.517280101776123 14.0000524520874 C 7.55486011505127 14.00027275085449 7.591800212860107 14.00037288665771 7.62893009185791 14.00037288665771 C 9.341469764709473 14.00037288665771 10.28355979919434 13.7658224105835 10.77231025695801 13.56906318664551 C 11.25331020355225 13.37542247772217 11.42444038391113 13.1771125793457 11.52840042114258 13.0086727142334 C 12.00201988220215 12.2412223815918 12.00103950500488 10.4693431854248 12.00008964538574 8.755792617797852 L 12 8.500002861022949 C 12 6.961042404174805 11.48639011383057 5.531413078308105 10.55379009246826 4.474462509155273 C 9.71483039855957 3.523642539978027 8.63031005859375 3.000002861022949 7.5 3.000002861022949 M 7.5 1.9073486328125e-06 C 11.64213943481445 1.9073486328125e-06 15 3.805583000183105 15 8.500002861022949 C 15 13.16777610778809 15.14144992828369 17.00037574768066 7.628934383392334 17.00037574768066 C 7.586047649383545 17.00037574768066 7.543386936187744 17.00025177001953 7.5 17.00000190734863 C -0.1435604095458984 16.95605278015137 0 13.19442272186279 0 8.500002861022949 C 0 3.805583000183105 3.35785961151123 1.9073486328125e-06 7.5 1.9073486328125e-06 Z" stroke="none" fill="#fff"/>
      </g>
      <g id="Group_500" data-name="Group 500" transform="translate(-333 -28)">
        <g id="Path_230" data-name="Path 230" transform="translate(7719.129 7091)" fill="none">
          <path d="M13.37,13.922C-.727,14,.006,13.194.006,8.5S5.99,0,13.37,0a18.487,18.487,0,0,1,8.5,1.94A18.487,18.487,0,0,1,30.371,0c7.381,0,13.364,3.805,13.364,8.5s.734,5.348-13.364,5.422q-.842,0-1.615,0C25.541,13.927,16.955,13.9,13.37,13.922Z" stroke="none"/>
          <path d="M 11.75515079498291 10.92666053771973 C 12.25013065338135 10.92666053771973 12.78824138641357 10.92514038085938 13.35452079772949 10.92214012145996 C 14.30058097839355 10.91713047027588 15.64047050476074 10.91470050811768 17.45074081420898 10.91470050811768 C 19.72350120544434 10.91470050811768 22.29984092712402 10.91853046417236 24.57290077209473 10.92191028594971 C 26.27355003356934 10.92444038391113 27.76809120178223 10.92666053771973 28.75520133972168 10.92666053771973 C 29.25204086303711 10.92665004730225 29.7901611328125 10.92512989044189 30.35460090637207 10.92214012145996 C 34.31816101074219 10.9011402130127 36.72685241699219 10.8328800201416 38.40869140625 10.69389057159424 C 39.69678115844727 10.58744335174561 40.37973022460938 10.45011425018311 40.72941970825195 10.35128498077393 C 40.74490356445312 10.02787017822266 40.74127578735352 9.575376510620117 40.7381591796875 9.18656063079834 C 40.73640060424805 8.967390060424805 40.73460006713867 8.738550186157227 40.73460006713867 8.499600410461426 C 40.73460006713867 7.309010028839111 39.81457138061523 6.041040420532227 38.21042251586914 5.020810127258301 C 36.1911506652832 3.736560106277466 33.33361053466797 3.000000238418579 30.3705005645752 3.000000238418579 C 27.75040054321289 3.000000238418579 25.22676086425781 3.567110300064087 23.26447105407715 4.596860408782959 L 21.87045097351074 5.328390121459961 L 20.47643089294434 4.596860408782959 C 18.51413154602051 3.567110300064087 15.99050140380859 3.000000238418579 13.37040138244629 3.000000238418579 C 10.40729141235352 3.000000238418579 7.549750804901123 3.736560106277466 5.530480861663818 5.020810127258301 C 3.926331043243408 6.041040420532227 3.006300926208496 7.309010028839111 3.006300926208496 8.499600410461426 C 3.006300926208496 8.738750457763672 3.004491090774536 8.968160629272461 3.002721071243286 9.188190460205078 C 2.999416351318359 9.599726676940918 2.995554447174072 10.08097076416016 3.0140380859375 10.41358089447021 C 3.318930864334106 10.50259685516357 3.897758007049561 10.62671566009521 4.943830966949463 10.72448062896729 C 6.440220832824707 10.86433029174805 8.540901184082031 10.92668056488037 11.75515079498291 10.92666053771973 M 28.7552604675293 13.92666053771973 C 26.46432304382324 13.92667484283447 21.44363975524902 13.91470336914062 17.45074081420898 13.91470336914062 C 15.84168338775635 13.91470336914062 14.40001964569092 13.91664600372314 13.37040138244629 13.92210006713867 C 12.80938816070557 13.92507266998291 12.27017593383789 13.92665576934814 11.75515556335449 13.92665958404541 C -0.6716681718826294 13.92674255371094 0.006300973705947399 13.00718688964844 0.006300973705947399 8.499600410461426 C 0.006300973705947399 3.805200099945068 5.989500999450684 2.113342247866967e-07 13.37040138244629 2.113342247866967e-07 C 16.59909057617188 2.113342247866967e-07 19.56049156188965 0.7282202243804932 21.87045097351074 1.940410256385803 C 24.18040084838867 0.7282202243804932 27.14181137084961 2.113342247866967e-07 30.3705005645752 2.113342247866967e-07 C 37.75139999389648 2.113342247866967e-07 43.73460006713867 3.805200099945068 43.73460006713867 8.499600410461426 C 43.73460006713867 13.19400024414062 44.46810150146484 13.8474006652832 30.3705005645752 13.92210006713867 C 29.80949020385742 13.92506980895996 29.2702808380127 13.92665004730225 28.7552604675293 13.92666053771973 Z" stroke="none" fill="#fff"/>
        </g>
        <g id="Path_229" data-name="Path 229" transform="translate(7719.136 7091)" fill="none">
          <path d="M13.364,0c7.381,0,13.364,3.806,13.364,8.5s.733,5.348-13.364,5.422S0,13.194,0,8.5,5.983,0,13.364,0Z" stroke="none"/>
          <path d="M 13.36406993865967 2.999995231628418 C 10.40111923217773 2.999995231628418 7.543670654296875 3.736604690551758 5.52440071105957 5.02094554901123 C 3.920200347900391 6.041275024414062 3.000150680541992 7.309345245361328 3.000150680541992 8.499995231628418 C 3.000150680541992 8.739215850830078 2.998340606689453 8.96867561340332 2.996570587158203 9.188755035400391 C 2.993265151977539 9.600183486938477 2.989402770996094 10.08133316040039 3.007867813110352 10.41390609741211 C 3.312784194946289 10.5029125213623 3.891595840454102 10.62700271606445 4.937549591064453 10.72474479675293 C 6.433849334716797 10.86456489562988 8.534469604492188 10.92692565917969 11.74862957000732 10.92692565917969 C 12.24374961853027 10.92692565917969 12.78191947937012 10.92540550231934 13.34817028045654 10.92240524291992 C 17.31171035766602 10.90140533447266 19.72035980224609 10.83314514160156 21.40212059020996 10.69417572021484 C 22.69021224975586 10.58774089813232 23.37312316894531 10.45043087005615 23.72281265258789 10.35160541534424 C 23.73828887939453 10.02819728851318 23.73466491699219 9.575695037841797 23.7315502166748 9.186914443969727 C 23.72978973388672 8.967755317687988 23.72798919677734 8.738924980163574 23.72798919677734 8.499995231628418 C 23.72798919677734 7.309345245361328 22.80793952941895 6.041275024414062 21.20373916625977 5.02094554901123 C 19.18447113037109 3.736604690551758 16.32701873779297 2.999995231628418 13.36406993865967 2.999995231628418 M 13.36406993865967 -4.76837158203125e-06 C 20.74476051330566 -4.76837158203125e-06 26.72798919677734 3.805575370788574 26.72798919677734 8.499995231628418 C 26.72798919677734 13.19441509246826 27.46142959594727 13.84765529632568 13.36406993865967 13.92236518859863 C 12.80306625366211 13.92533779144287 12.26364040374756 13.92692470550537 11.74862957000732 13.92692470550537 C -0.6779861450195312 13.92692470550537 0.0001506805419921875 13.00760078430176 0.0001506805419921875 8.499995231628418 C 0.0001506805419921875 3.805575370788574 5.983379364013672 -4.76837158203125e-06 13.36406993865967 -4.76837158203125e-06 Z" stroke="none" fill="#fff"/>
        </g>
      </g>
    </g>
  </g>
</svg>
